<?xml version="1.0" encoding="utf-8"?>
<!-- Generator: Adobe Illustrator 24.0.2, SVG Export Plug-In . SVG Version: 6.00 Build 0)  -->
<svg version="1.1" xmlns="http://www.w3.org/2000/svg" xmlns:xlink="http://www.w3.org/1999/xlink" x="0px" y="0px"
	 viewBox="0 0 541.98 276.13" style="enable-background:new 0 0 541.98 276.13;" xml:space="preserve">
<style type="text/css">
	.st0{fill:#FFFFFF;stroke:#FFFFFF;stroke-miterlimit:10;}
	.st1{fill:#FFFFFF;stroke:#2E3192;stroke-miterlimit:10;}
	.st2{fill:#BECCE2;}
	.st3{fill:#82AFCF;stroke:#FFFFFF;stroke-miterlimit:10;}
	.st4{fill:#82AFCF;}
</style>
<g id="Layer_6">
</g>
<g id="Layer_4">
	<path class="st0" d="M415.78,276.13"/>
	<path class="st0" d="M280.09,330.73"/>
	<path class="st0" d="M231.03,324.4"/>
	<path class="st0" d="M85.05,315.3"/>
	<path class="st1" d="M71.21,338.64"/>
	<path class="st0" d="M246.86,321.49"/>
	<path class="st0" d="M230.24,310.15"/>
	<path class="st0" d="M86.51,317.54"/>
</g>
<g id="Layer_5">
	<path class="st2" d="M119.08,333.49"/>
	<path class="st3" d="M9.68,213.88c-3.38-17.23,9.23-31.28,14.05-36.65c9.67-10.77,21.06-15.2,26.9-17.01
		c-0.67-5.37-1.09-13.74,1.17-23.48c1.33-5.75,5.87-25.31,24.33-37.51c2.46-1.63,14.51-9.3,31.08-9.03c3.3,0.05,11.08,0.27,20,4.28
		c4.6,2.06,8.09,4.5,10.46,6.4c0.2-4.41,0.78-10.46,2.44-17.46c0,0,4.79-20.17,17.73-36.73c18.02-23.07,51.3-37.19,84.26-35.21
		c0,0,42.19,2.53,70.02,33.23c7.28,8.02,11.93,13.16,15.03,21.76c0,0,0.43,0.98,4.75,11.08c0,0,7.91-13.43,10.29-17.01
		c10.29-15.5,32-19.79,39.96-21.36c29.01-5.73,52.1,6.52,58.95,10.29c7.22,3.97,19.15,10.64,28.48,24.53
		c11.77,17.51,12.57,36.25,12.26,44.7c-0.51,13.75-5.14,32.06-5.14,32.04c21.62,6.69,24.92,8.31,24.92,8.31
		c5.73,2.81,17.88,8.77,24.53,22.15c1.15,2.31,5.18,10.67,4.32,21.23c-1.93,23.68-26.64,35.85-28.22,36.6l0,0
		c-19.12,6.41-33.22,5.13-52.6,4.16c-40.9-2.05-32.58,0.94-114.31-2.92c-0.02,0-0.02,0-0.02,0c0,0,0,0,0,0s0,0,0,0
		c-24.2,0.78-35.15,2.29-100.53,2.92c-71.84,0.69-116.9-0.57-155,1.18c-1.12,0.05-5.7,0.43-11.85,0.53
		c-12.08,0.19-21.02,0.33-28.44-1.71C28.42,240.13,12.86,230.08,9.68,213.88z"/>
</g>
<g id="Layer_1">
	<path class="st0" d="M22.55,207.69c-1.84-14.07,10.89-25.46,16.16-30.18c8.66-7.74,17.89-10.93,23.22-12.33
		c-2.11-11.94-0.54-21.33,0.8-26.7c1.8-7.25,6.41-25.13,23.21-33.65c16.72-8.49,34.27-1.38,40.65,1.19
		c8.49,3.42,14.53,8.14,18.2,11.47c-0.18-5.22-0.9-44.39,30.46-71.21c26.37-22.55,57.17-20.77,65.27-20.18
		c46.76,3.45,74.89,42,80.31,54.2c0,0,0.04,0.1,7.91,18.2c17.81-23.3,18.59-24.13,18.59-24.13c12.04-12.82,33.83-23.45,57.76-20.97
		c20.06,2.08,38.82,13.83,48.66,27.69c13.26,18.68,12.25,38.81,11.87,46.29c-0.63,12.49-4.07,22.36-6.73,28.48
		c0.17,0.04,16.24,2.95,28.2,7.3c1.48,0.54,3.85,1.44,6.72,2.95c2.49,1.31,4.77,2.78,7.23,4.55c3.37,2.44,17.61,12.72,18.38,26.74
		c0.71,12.95-10.19,26.57-26.92,32.83l0,0c-18.24,5.75-31.7,4.6-50.18,3.73c-39.02-1.84-31.08,0.84-109.07-2.62
		c-0.01,0-0.02,0-0.02,0c0,0,0,0,0,0s0,0,0,0c-23.09,0.7-33.53,2.05-95.92,2.62c-68.54,0.62-111.53-0.51-147.88,1.06
		c-1.07,0.05-5.44,0.39-11.3,0.47c-11.53,0.17-20.05,0.3-27.13-1.53C40.64,231.3,24.44,222.14,22.55,207.69z"/>
	<g id="Layer_7">
		<rect x="87.82" y="175.81" class="st0" width="367.52" height="58.39"/>
		<rect x="67.65" y="238.15" class="st4" width="398.77" height="5.93"/>
	</g>
	<path class="st0" d="M549.1,259.68"/>
	<path class="st3" d="M203.95,265.85"/>
	<g>
		<path class="st3" d="M126.08,168.11c-2.09,13.45-4.19,26.9-6.25,40.37c-0.91,5.96-3.07,11.38-5.48,16.59
			c-1.56,3.39-3.84,8.39-7.73,5.47c-3.9-2.93-4.99-10.41-2.17-13.41c8.42-8.95,8.83-21.09,11.15-32.33
			c3.15-15.27,4.83-30.93,5.87-46.63c0.16-2.46,1.92-6.05-1.74-7.08c-2.92-0.82-5.4-0.37-7.49,3.32c-5.27,9.3-3.78,19.21-2.83,29.13
			c0.74,7.71-1.8,10.97-7.13,8.99c-2.4-0.89-3.24-3.34-3.94-5.47c-4.75-14.52-3.4-28.28,4.45-40.94c2.78-4.48,6.45-6.14,11.41-6.67
			c7.53-0.81,13.62,4.96,20.98,4.57c3.25-0.17,2.13,4.41,2.32,6.95c1.19,15.65,2.23,31.32,4.87,47.42
			c2.18-8.97,4.39-17.93,6.52-26.92c1.72-7.25,3.39-14.52,4.95-21.82c0.78-3.67,1.96-5.68,5.78-6.1c7.06-0.77,9.42,1.7,8.83,10.32
			c-1.71,25.09-3.56,50.21-3.34,75.43c0.08,9.12,0.46,18.13,3.21,26.9c2.11,6.73-0.76,12.96-5.63,15.28
			c-6.14,2.92-8.17-3.42-9.26-9.3c-3.76-20.33-1.42-40.74-0.48-61.13c0.24-5.3,0.77-10.59-0.32-16.27
			c-2.88,12.56-5.74,25.13-8.63,37.69c0,0-0.22,8.35-4.39,19.05c-0.94,2.41-2.39,5.6-4.66,5.94c-0.99,0.15-2.25-0.23-3.03-1.32
			c-1.25-1.72-0.86-4.58-0.79-5.2C131.56,217,130.29,201.91,126.08,168.11z"/>
		<path class="st3" d="M310.22,149.27c0.85,0,1.38,0.19,1.71-0.03c12.06-7.88,19.48-3.02,19.11,13.47
			c-0.27,11.89-2.01,23.73-3.12,35.59c-0.64,6.75-1.9,13.11,1.21,20.06c2.56,5.71-2.18,10.32-6.19,12.09
			c-5.33,2.35-7.76-3.52-8.76-8.11c-1.88-8.62-0.61-17.49,0.23-26.25c0.96-9.98,2.05-19.96,2.49-29.97c0.14-3.08,2.27-8.72-2.7-9.13
			c-4.48-0.38-4.07,5.43-4.47,8.63c-2.1,16.75-3.99,33.55-5.34,50.4c-0.56,7.07-0.68,13.1-8.84,12.36c-1.29-0.12-2.71,1.69-4.5,2.89
			c-2.26-3.2-1.43-6.63-1.13-9.77c3.19-33.73,7.07-67.38,8.61-101.31c0.23-4.97,0.85-9.56,6.3-9.83c5.94-0.3,6.82,4.65,7.31,9.91
			C313.04,130.02,310.34,139.53,310.22,149.27z"/>
		<path class="st3" d="M264.28,152.18c1.36-1.44,3.71-3.57,7-4.89c2.18-0.88,7.05-2.83,10.76,0.02c2.85,2.19,4.11,6.29,4.52,9.59
			c2.68,21.64,3.22,43.09-7.34,62.56c-3.42,6.3-7.87,11.58-14.98,11.48c-3.43-0.05-3.95,2.26-3.96,5.42
			c-0.01,3.46-0.32,6.94-0.08,10.36c0.42,5.81-1.52,9.98-6.39,10.69c-5.88,0.86-7.12-5.02-7.25-9.85c-0.23-8.44,0.28-16.95,1-25.37
			c1.93-22.79,4.5-45.51,6.04-68.33c0.54-8.03,6.38-7.58,9.43-8.51c0.93-0.29,1.52-0.26,1.93,0.19
			C266.19,146.92,264.5,151.59,264.28,152.18z M274.9,175.55c0-4.1,0.1-8.19-0.03-12.28c-0.09-2.98,0.66-6.97-3.24-7.28
			c-3.15-0.26-3.8,3.42-4.25,5.92c-3.16,17.59-3.68,35.57-5.26,53.39c-0.16,1.81-0.18,3.99,1.96,4.49c1.84,0.43,3.72,0.73,4.87-1.83
			c1.25-2.77,2.51-5.43,2.98-8.66C273.54,198.12,274.89,186.92,274.9,175.55z"/>
		<path class="st3" d="M391.03,148.86c-1.41,15.37-2.88,30.04-4.03,44.74c-0.56,7.19-0.6,14.44-0.73,21.66
			c-0.03,1.73-0.15,3.95,1.99,4.49c2,0.5,2.64-1.22,3.58-2.83c1.75-3,2.31-6.27,2.62-9.76c1.53-17.52,3.12-35.03,4.73-52.54
			c0.36-3.93,9.66-11.27,12.65-9.86c3.28,1.54,1.51,4.85,1.31,7.29c-1.41,17.53-3.03,35.03-4.49,52.56
			c-0.36,4.29-0.62,8.34,1.35,12.73c2.42,5.4-1.43,9.34-4.7,12.49c-3.61,3.49-6.16-0.28-7.9-3.06c-2.16-3.44-2.77-3.3-5.77-0.49
			c-9.21,8.63-16.62,4.61-18.28-9.96c-1.97-17.33,1.54-34.47,2.35-51.72c0.1-2.19,0.9-4.47,0.59-6.54
			c-1.74-11.43,6.87-10.4,11.83-13.14C391.23,143.21,390.93,147.19,391.03,148.86z"/>
		<path class="st3" d="M171.16,198.19c0.47-17.54,1.44-32.62,9.95-45.07c3.62-5.3,8.16-10.11,14.75-8.63
			c6.75,1.52,10.64,7.91,11.84,14.64c3.64,20.41,2.87,40.71-6.19,59.35c-3.4,6.99-8.48,13.75-16.16,12.21
			c-8.28-1.66-11.52-10.21-13.2-18.9C171.15,206.64,171.35,201.16,171.16,198.19z M196.15,176.24c0-4.09,0.25-8.2-0.08-12.25
			c-0.25-3.01,1.63-7.72-2.89-8.34c-4.68-0.64-4.72,4.49-5.3,7.78c-2.74,15.74-3.82,31.71-3.48,47.77c0.07,3.17-0.82,7.96,3.07,8.48
			c4.35,0.58,4.44-4.64,5.1-7.98C194.88,200.07,195.92,188.21,196.15,176.24z"/>
		<path class="st3" d="M439.44,165.09c0.89-4.67-0.61-8.89-3.71-12.31c-0.85-0.94-1.68,0.26-2.53,1.15
			c-4.07,4.29-2.69,9.29-1.17,13.92c1.3,3.98,3.52,7.31,6.41,10.38c11,11.69,13.28,30.04,5.94,43.34
			c-4.63,8.39-14.66,12.16-21.2,7.98c-8.18-5.24-11.35-15.17-7.72-24.28c1.55-3.9,3.63-6.89,7.91-6c4.41,0.91,3.1,5.01,3.39,8.18
			c0.15,1.56-0.06,3.15,0.04,4.72c0.21,3.43,0.21,6.98,3.63,8.64c1.81,0.88,3.48-0.13,4.43-1.26c2.3-2.75,1.94-6.46,0.99-9.73
			c-1.81-6.29-5.28-11.29-9.36-15.9c-8.4-9.49-12.49-33.06-1.63-43.09c5.45-5.03,10.99-9.08,17.78-5.1
			c6.9,4.05,9.59,11.35,8.18,20.26c-0.78,4.9-1.92,10.68-7.49,10.01C437.88,175.37,439.59,169.66,439.44,165.09z"/>
		<path class="st3" d="M364.62,202.81c2.14,8.34,0.61,15.21-3.48,20.72c-7.56,10.21-15.22,10.82-21.91-1.82
			c-5.05-9.54-5.08-20.35-4.3-31.03c0.98-13.41,2.19-26.95,10.08-37.79c4.4-6.05,10.13-11.14,17.11-7.9
			c6.51,3.02,8.31,10.48,8.3,18.55c-0.03,16.24-4.68,23.44-17.94,26.05c-3.15,0.62-4.2,2.55-4.41,5.44
			c-0.38,5.35-0.38,11.27,3.28,14.8c2.09,2.02,6.13,2,8.78-1.16C361.55,206.98,362.83,205.15,364.62,202.81z M358.68,155.19
			c-2.93,0.02-4.56,1.24-5.41,2.11c-4.05,4.13-2.51,11.12-3.92,19.57c-0.31,1.83-1.26,4.7,1.54,5.36c1.98,0.47,3.21-0.89,4.53-2.86
			c1.35-2.01,2.52-4.12,3.39-7.39C360.71,164.81,359.23,157.57,358.68,155.19z"/>
		<path class="st3" d="M212.04,229.97c-0.15-15.43,2.62-30.85,3.54-46.43c0.59-10.01,1.85-19.97,2.81-29.95
			c0.23-2.39,0.03-4.47,2.89-5.73c5.74-2.52,10.43-4.55,8.47,7.42c3.38-7.58,8.59-11.77,12.74-10.48c2.11,0.65,3.53,2.59,3.99,3.24
			c2.75,3.86,2.78,9.65,2.77,15.09c-0.02,7.26-0.05,14.42-5.71,19.4c-1.58,1.39-2.79,4.62-5.19,2.08c-1.52-1.6-2.49-3.73-1.63-6.7
			c0.93-3.21,1.43-6.71,1.52-10.11c0.1-3.75,2.21-9.87-1.97-10.54c-4.94-0.79-4.39,6.08-4.88,9.94c-1.45,11.47-2.33,23.04-3.4,34.57
			c-0.15,1.56-0.1,3.14-0.18,4.71C227.19,218,227.91,230.62,212.04,229.97z"/>
	</g>
	<path class="st4" d="M505.98,319.65"/>
	<path class="st0" d="M75.16,322.42"/>
	<path class="st0" d="M504.4,298.29"/>
	<path class="st4" d="M414.59,302.64"/>
	<g>
		<g>
			<path class="st4" d="M466.52,244.12c3.22,0,3.22-5,0-5C463.3,239.12,463.29,244.12,466.52,244.12L466.52,244.12z"/>
		</g>
	</g>
	<g>
		<g>
			<path class="st4" d="M468.2,243.23c3.22,0,3.22-5,0-5C464.98,238.23,464.98,243.23,468.2,243.23L468.2,243.23z"/>
		</g>
	</g>
	<g>
		<g>
			<path class="st4" d="M467.05,243.8c0.03,0.01,0.06,0.02,0.1,0.03c0.17,0.03,0.52,0.08,0.69,0.09c0.01,0,0.03,0,0.04,0
				c0.02,0,0.04,0,0.05,0c0.01,0,0.01,0,0.02,0c0.22-0.03,0.44-0.06,0.66-0.09c0.03-0.01,0.07-0.01,0.1-0.02
				c0.03-0.01,0.07-0.02,0.1-0.04c0.22-0.09,0.45-0.17,0.66-0.28c0.06-0.03,0.13-0.07,0.19-0.11c0.42-0.3,0.82-0.64,1.22-0.96
				c0.24-0.23,0.42-0.49,0.52-0.8c0.16-0.3,0.23-0.62,0.22-0.96c0.01-0.34-0.06-0.67-0.22-0.96c-0.1-0.31-0.27-0.58-0.52-0.8
				c-0.17-0.13-0.34-0.26-0.51-0.39c-0.39-0.23-0.81-0.34-1.26-0.34c-0.22,0.03-0.44,0.06-0.66,0.09c-0.42,0.12-0.79,0.33-1.1,0.64
				c-0.21,0.17-0.41,0.33-0.62,0.5c0.17-0.13,0.34-0.26,0.51-0.39c-0.11,0.08-0.22,0.16-0.35,0.22c0.2-0.08,0.4-0.17,0.6-0.25
				c-0.06,0.03-0.13,0.05-0.2,0.06c0.22-0.03,0.44-0.06,0.66-0.09c-0.04,0-0.09,0-0.13,0c0.22,0.03,0.44,0.06,0.66,0.09
				c-0.04-0.01-0.07-0.02-0.11-0.03c-0.33-0.1-0.66-0.12-1-0.04c-0.33,0.02-0.64,0.11-0.93,0.3c-0.29,0.16-0.53,0.37-0.7,0.64
				c-0.22,0.24-0.37,0.52-0.45,0.85c-0.03,0.22-0.06,0.44-0.09,0.66c0,0.45,0.12,0.87,0.34,1.26c0.13,0.17,0.26,0.34,0.39,0.51
				C466.26,243.47,466.63,243.68,467.05,243.8L467.05,243.8z"/>
		</g>
	</g>
	<g>
		<g>
			<path class="st4" d="M467.16,244.02c3.22,0,3.22-5,0-5C463.94,239.02,463.94,244.02,467.16,244.02L467.16,244.02z"/>
		</g>
	</g>
	<g>
		<g>
			<path class="st4" d="M469.14,243.52c3.22,0,3.22-5,0-5C465.92,238.52,465.91,243.52,469.14,243.52L469.14,243.52z"/>
		</g>
	</g>
	<g>
		<g>
			<path class="st4" d="M469.14,243.77c3.22,0,3.22-5,0-5C465.92,238.77,465.91,243.77,469.14,243.77L469.14,243.77z"/>
		</g>
	</g>
	<g>
		<g>
			<path class="st4" d="M469.98,243.72c3.22,0,3.22-5,0-5C466.76,238.72,466.76,243.72,469.98,243.72L469.98,243.72z"/>
		</g>
	</g>
	<g>
		<g>
			<path class="st4" d="M470.47,243.62c3.22,0,3.22-5,0-5C467.26,238.62,467.25,243.62,470.47,243.62L470.47,243.62z"/>
		</g>
	</g>
</g>
</svg>
